<?xml version="1.0" encoding="UTF-8" standalone="no"?>
<!-- Created with Inkscape (http://www.inkscape.org/) -->

<svg
   xml:space="preserve"
   sodipodi:docname="box.svg"
   inkscape:version="1.2.2 (b0a8486541, 2022-12-01)"
   id="svg152910"
   version="1.1"
   viewBox="0 0 210 297"
   height="297mm"
   width="210mm"
   xmlns:inkscape="http://www.inkscape.org/namespaces/inkscape"
   xmlns:sodipodi="http://sodipodi.sourceforge.net/DTD/sodipodi-0.dtd"
   xmlns:xlink="http://www.w3.org/1999/xlink"
   xmlns="http://www.w3.org/2000/svg"
   xmlns:svg="http://www.w3.org/2000/svg"><sodipodi:namedview
     id="namedview152912"
     pagecolor="#808080"
     bordercolor="#111111"
     borderopacity="1"
     inkscape:showpageshadow="0"
     inkscape:pageopacity="0"
     inkscape:pagecheckerboard="1"
     inkscape:deskcolor="#d1d1d1"
     inkscape:document-units="mm"
     showgrid="false"
     inkscape:zoom="2"
     inkscape:cx="246.75"
     inkscape:cy="387.25"
     inkscape:window-width="2532"
     inkscape:window-height="1016"
     inkscape:window-x="0"
     inkscape:window-y="0"
     inkscape:window-maximized="1"
     inkscape:current-layer="layer2" /><defs
     id="defs152907"><inkscape:path-effect
       effect="mirror_symmetry"
       start_point="0,100"
       end_point="500,100"
       center_point="163.99981,99.999839"
       id="path-effect87973"
       is_visible="false"
       lpeversion="1.2"
       lpesatellites=""
       mode="free"
       discard_orig_path="false"
       fuse_paths="false"
       oposite_fuse="false"
       split_items="false"
       split_open="false"
       link_styles="false" /><inkscape:path-effect
       effect="mirror_symmetry"
       start_point="153.5,99.999839"
       end_point="158.74991,58.499788"
       center_point="158.74991,99.999839"
       id="path-effect86519"
       is_visible="true"
       lpeversion="1.2"
       lpesatellites=""
       mode="free"
       discard_orig_path="false"
       fuse_paths="false"
       oposite_fuse="false"
       split_items="false"
       split_open="false"
       link_styles="false" /><linearGradient
       x1="112.49854"
       y1="6.1372099"
       x2="112.49853"
       y2="129.3468"
       id="path1082_2_"
       gradientUnits="userSpaceOnUse"
       gradientTransform="translate(287,-83)"><stop
         id="stop193"
         style="stop-color:#ffffff;stop-opacity:0"
         offset="0" /><stop
         id="stop195"
         style="stop-color:#ffffff;stop-opacity:0.27450982"
         offset="1" /><midPointStop
         offset="0"
         style="stop-color:#FFFFFF"
         id="midPointStop197" /><midPointStop
         offset="0.5"
         style="stop-color:#FFFFFF"
         id="midPointStop199" /><midPointStop
         offset="1"
         style="stop-color:#000000"
         id="midPointStop201" /></linearGradient><linearGradient
       x1="541.33502"
       y1="104.50665"
       x2="606.91248"
       y2="303.14029"
       id="linearGradient2544"
       xlink:href="#path1082_2_"
       gradientUnits="userSpaceOnUse"
       gradientTransform="matrix(-0.3937741,0,0,0.393752,357.51969,122.00151)" /><linearGradient
       id="linearGradient3388"><stop
         id="stop3390"
         style="stop-color:#000000;stop-opacity:0"
         offset="0" /><stop
         id="stop3392"
         style="stop-color:#000000;stop-opacity:0.37113401"
         offset="1" /></linearGradient><linearGradient
       x1="490.72305"
       y1="237.72447"
       x2="490.72305"
       y2="183.9644"
       id="linearGradient4416"
       xlink:href="#linearGradient3388"
       gradientUnits="userSpaceOnUse"
       gradientTransform="matrix(0.749107,0,0,0.749107,-35.459862,91.44108)" /></defs><g
     inkscape:groupmode="layer"
     id="layer2"
     inkscape:label="background"
     style="display:inline"><rect
       style="fill:#ffffff;fill-opacity:1;stroke-width:1.56422;stroke-linejoin:round;stroke-miterlimit:2;paint-order:fill markers stroke;stop-color:#000000"
       id="rect118648"
       width="210"
       height="297"
       x="0.13229166"
       y="0.13229166" /></g><g
     inkscape:label="box-components"
     inkscape:groupmode="layer"
     id="layer1"
     style="display:none;fill:#ffffff;stroke:#000000;stroke-width:2.8;stroke-linecap:butt;stroke-linejoin:round;stroke-dasharray:none;stroke-dashoffset:0;stroke-opacity:1;paint-order:markers stroke fill"
     transform="translate(13.999796,23)"><path
       id="rect14013-3-6-5"
       style="fill:#ffffff;stroke:none;stroke-width:2.8;stroke-linecap:butt;stroke-linejoin:round;stroke-miterlimit:2;stroke-dasharray:none;stroke-dashoffset:0;stroke-opacity:1;paint-order:markers stroke fill;stop-color:#000000"
       inkscape:label="glue-flap"
       d="m 49,219 v -0.25 h 84 V 219 l -2.2,10 H 51.199999 Z"
       sodipodi:nodetypes="ccccccc" /><rect
       style="fill:#ffffff;fill-opacity:1;stroke:none;stroke-width:2.7917;stroke-linecap:butt;stroke-linejoin:round;stroke-miterlimit:2;stroke-dasharray:none;stroke-dashoffset:0;stroke-opacity:1;paint-order:markers stroke fill;stop-color:#000000"
       id="rect14013-7"
       width="84"
       height="84"
       x="49"
       y="134.75"
       inkscape:label="back" /><rect
       style="fill:#ffffff;fill-opacity:1;stroke:none;stroke-width:2.83759;stroke-linecap:butt;stroke-linejoin:round;stroke-miterlimit:2;stroke-dasharray:none;stroke-dashoffset:0;stroke-opacity:1;paint-order:markers stroke fill;stop-color:#000000"
       id="rect14013-3-6"
       width="84"
       height="19.00001"
       x="49.000004"
       y="115.75"
       inkscape:label="bottom" /><rect
       style="fill:#ffffff;fill-opacity:1;stroke:none;stroke-width:2.7917;stroke-linecap:butt;stroke-linejoin:round;stroke-miterlimit:2;stroke-dasharray:none;stroke-dashoffset:0;stroke-opacity:1;paint-order:markers stroke fill;stop-color:#000000"
       id="rect14013"
       width="84"
       height="84"
       x="49"
       y="31.75"
       inkscape:label="front" /><rect
       style="fill:#ffffff;fill-opacity:1;stroke:none;stroke-width:2.81886;stroke-linecap:butt;stroke-linejoin:round;stroke-miterlimit:2;stroke-dasharray:none;stroke-dashoffset:0;stroke-opacity:1;paint-order:markers stroke fill;stop-color:#000000"
       id="rect14013-3"
       width="84"
       height="18.75"
       x="49"
       y="13"
       inkscape:label="top" /><path
       id="rect43863"
       style="fill:#ffffff;stroke:none;stroke-width:2.8;stroke-linecap:butt;stroke-linejoin:round;stroke-miterlimit:2;stroke-dasharray:none;stroke-dashoffset:0;stroke-opacity:1;paint-order:markers stroke fill;stop-color:#000000"
       inkscape:label="right tuck-flap"
       d="m 151,32.250017 v 4.499984 h -1.49965 c -2e-4,2.28e-4 -5.2e-4,74.000139 -5.2e-4,74.000139 H 151 v 4.50049 c 3.74463,-0.0726 7.41719,-2.11586 8.99996,-5.00021 V 37.250229 C 158.41721,34.365874 154.74457,32.322657 151,32.250017 Z"
       sodipodi:nodetypes="ccccccccc" /><path
       id="rect14013-5"
       style="fill:#ffffff;stroke:none;stroke-width:2.8;stroke-linecap:butt;stroke-linejoin:round;stroke-miterlimit:2;stroke-dasharray:none;stroke-dashoffset:0;stroke-opacity:1;paint-order:markers stroke fill;stop-color:#000000"
       inkscape:label="right closure-panel"
       d="m 133,31.749997 h 18 v 5.000004 h -1.5 V 110.75 h 1.5 v 5 h -18 z"
       sodipodi:nodetypes="ccccccccc" /><path
       id="rect43863-9"
       style="fill:#ffffff;stroke:none;stroke-width:2.8;stroke-linecap:butt;stroke-linejoin:round;stroke-miterlimit:2;stroke-dasharray:none;stroke-dashoffset:0;stroke-opacity:1;paint-order:markers stroke fill;stop-color:#000000"
       inkscape:label="left tuck-flap"
       d="M 31.000175,135.25002 V 139.75 h 1.49965 c 1.9e-4,2.3e-4 5.2e-4,74.00014 5.2e-4,74.00014 h -1.50017 v 4.5005 c -3.74463,-0.0726 -7.41719,-2.11586 -8.999971,-5.00021 v -73.0002 c 1.582751,-2.88435 5.255401,-4.92757 8.999971,-5.00021 z"
       sodipodi:nodetypes="ccccccccc" /><path
       id="rect14013-5-9"
       style="fill:#ffffff;stroke:none;stroke-width:2.8;stroke-linecap:butt;stroke-linejoin:round;stroke-miterlimit:2;stroke-dasharray:none;stroke-dashoffset:0;stroke-opacity:1;paint-order:markers stroke fill;stop-color:#000000"
       inkscape:label="left closure-panel"
       d="M 49,134.75 H 31 v 5 h 1.5 v 74 H 31 v 5 h 18 z"
       sodipodi:nodetypes="ccccccccc" /><path
       id="rect18282-3-2-7-3"
       style="fill:#ffffff;stroke:none;stroke-width:2.8;stroke-linecap:butt;stroke-linejoin:round;stroke-miterlimit:2;stroke-dasharray:none;stroke-dashoffset:0;stroke-opacity:1;paint-order:markers stroke fill;stop-color:#000000"
       inkscape:label="top-left dust-flap"
       d="M 36,16.749994 46.5,15.250002 49,13 v 18.249998 h -3 l -2,-2 -8,-2 z"
       sodipodi:nodetypes="cccccccc" /><path
       id="rect18282-3-2-7-3-2"
       style="fill:#ffffff;stroke:none;stroke-width:2.8;stroke-linecap:butt;stroke-linejoin:round;stroke-miterlimit:2;stroke-dasharray:none;stroke-dashoffset:0;stroke-opacity:1;paint-order:markers stroke fill;stop-color:#000000"
       inkscape:label="top-right dust-flap"
       d="m 146,27.750006 -10.7,1.499992 -2.3,2 V 13 h 2.75 l 2.25,2.250002 8,2 z"
       sodipodi:nodetypes="cccccccc" /><path
       id="rect18282-3-2-7-3-2-6"
       style="fill:#ffffff;stroke:none;stroke-width:2.8;stroke-linecap:butt;stroke-linejoin:round;stroke-miterlimit:2;stroke-dasharray:none;stroke-dashoffset:0;stroke-opacity:1;paint-order:markers stroke fill;stop-color:#000000"
       inkscape:label="bottom-right dust-flap"
       d="m 146,119.75 -10.7,-1.49999 -2.3,-2 V 134.25 h 3 l 2,-2 8,-2 z"
       sodipodi:nodetypes="cccccccc" /><path
       id="rect18282-3-2-7-3-2-6-1"
       style="fill:#ffffff;stroke:none;stroke-width:2.8;stroke-linecap:butt;stroke-linejoin:round;stroke-miterlimit:2;stroke-dasharray:none;stroke-dashoffset:0;stroke-opacity:1;paint-order:markers stroke fill;stop-color:#000000"
       inkscape:label="bottom-left dust-flap"
       d="m 36.000004,130.75 10.7,1.5 2.3,2 v -18 h -3 l -2,2 -8,2 z"
       sodipodi:nodetypes="cccccccc" /></g><g
     inkscape:groupmode="layer"
     id="layer3"
     inkscape:label="patterns"
     style="display:inline"><g
       id="g37143"
       inkscape:label="front"><path
         style="display:none;fill:none;stroke:#ff0808;stroke-width:0.1;stroke-linejoin:round;stroke-miterlimit:2;stroke-dasharray:none;stroke-opacity:1;paint-order:fill markers stroke;stop-color:#000000"
         d="m 62.201542,111.51428 c 17.171783,-1.9552 33.849117,-4.12625 61.082618,-3.9162 7.35326,0.0567 15.4761,0.28703 24.58606,0.74205"
         id="path5588"
         sodipodi:nodetypes="csc"
         inkscape:label="path-up" /><path
         style="display:none;fill:none;stroke:#000000;stroke-width:0.1;stroke-linejoin:round;stroke-miterlimit:2;stroke-dasharray:none;stroke-opacity:1;paint-order:fill markers stroke;stop-color:#000000"
         d="m 62.201542,117.78787 c 23.231803,-4.12602 41.138828,-5.74913 61.073338,-5.52224 7.74823,0.0882 15.80277,0.45587 24.59534,1.0647"
         id="path5588-6"
         sodipodi:nodetypes="csc"
         inkscape:label="path-lower" /><g
         id="g21631"
         inkscape:label="front-color-fill"><path
           style="display:inline;fill:#d9f2ff;fill-opacity:1;stroke:none;stroke-width:0.1;stroke-linejoin:round;stroke-miterlimit:2;stroke-dasharray:none;stroke-opacity:1;paint-order:fill markers stroke;stop-color:#000000"
           d="m 148,113.33033 c -8.79257,-0.60883 -16.97689,-0.9765 -24.72512,-1.0647 L 123.25,139 l 24.75,4e-5 z"
           id="path26896"
           sodipodi:nodetypes="ccccc"
           inkscape:label="fill-right-lower" /><path
           id="path19374"
           style="display:inline;fill:#ecf9ff;stroke:none;stroke-width:0.1;stroke-linejoin:round;stroke-miterlimit:2;stroke-dasharray:none;stroke-opacity:1;paint-order:fill markers stroke;stop-color:#000000;fill-opacity:1"
           inkscape:label="fill-right-upper"
           d="M 123.28395 107.59808 L 123.27878 112.2655 C 131.02578 112.35378 139.20875 112.72183 147.99975 113.33055 L 147.99975 108.34016 C 138.8898 107.88514 130.6372 107.65478 123.28395 107.59808 z " /><path
           style="display:inline;fill:#b4e6ff;fill-opacity:1;stroke:none;stroke-width:0.1;stroke-linejoin:round;stroke-miterlimit:2;stroke-dasharray:none;stroke-opacity:1;paint-order:fill markers stroke;stop-color:#000000"
           d="m 62,117.78787 c 23.231803,-4.12602 41.34037,-5.76476 61.27488,-5.53787 L 123.25,139 H 62 Z"
           id="path5097"
           sodipodi:nodetypes="ccccc"
           inkscape:label="fill-left-lower" /><path
           id="path5095"
           style="display:inline;fill:#d6f1ff;fill-opacity:1;stroke:none;stroke-width:0.1;stroke-linejoin:round;stroke-miterlimit:2;stroke-dasharray:none;stroke-opacity:1;paint-order:fill markers stroke;stop-color:#000000"
           inkscape:label="fill-left-upper"
           d="M 120.727 107.58516 C 94.96344 107.52339 78.634981 109.62003 61.999833 111.51412 L 61.999833 117.78764 C 85.22195 113.66334 103.32516 112.02475 123.24984 112.25 L 123.24984 107.59808 C 122.3988 107.59152 121.55808 107.58716 120.727 107.58516 z " /></g><g
         id="g39594"
         inkscape:label="big-arch-logo"><path
           d="m 92.589028,74.48 c -2.083011,5.106991 -3.339384,8.447564 -5.658546,13.402743 1.421936,1.507253 3.167295,3.262522 6.001754,5.244934 -3.04732,-1.253953 -5.125965,-2.512893 -6.67937,-3.819297 -2.968086,6.193362 -7.618217,15.01553 -17.054838,31.97122 7.416867,-4.28189 13.166289,-6.92172 18.524475,-7.92899 -0.230082,-0.98959 -0.360894,-2.06001 -0.352009,-3.17689 l 0.0089,-0.23762 c 0.117689,-4.75179 2.589566,-8.40591 5.517742,-8.15781 2.928177,0.2481 5.204217,4.30365 5.086523,9.05544 -0.02214,0.89415 -0.122984,1.75429 -0.299208,2.55206 5.300019,1.03679 10.987959,3.66986 18.304469,7.89381 -1.44267,-2.65606 -2.73039,-5.05031 -3.96009,-7.33058 -1.93701,-1.50131 -3.9574,-3.45528 -8.07861,-5.57055 2.83267,0.73605 4.86084,1.58527 6.44176,2.53448 C 97.889005,87.634764 96.876539,84.541575 92.589028,74.48 Z"
           id="path28447"
           style="display:inline;opacity:1;mix-blend-mode:multiply;fill:#96cfec;fill-opacity:1;fill-rule:evenodd;stroke:none;stroke-width:0.281607"
           inkscape:label="arch_logo" /><path
           id="path28449"
           style="display:inline;fill:#43aeec;fill-opacity:1;stroke:none;stroke-width:0.1;stroke-linejoin:round;stroke-miterlimit:2;stroke-dasharray:none;stroke-opacity:1;paint-order:fill markers stroke;stop-color:#000000"
           inkscape:label="arch-logo-d1"
           d="m 108.68381,107.72159 c -3.83467,0.0983 -7.45095,0.24622 -10.89288,0.43253 0.14654,0.85148 0.215731,1.75172 0.192753,2.67942 -0.01921,0.77593 -0.101103,1.52367 -0.236678,2.22984 4.143625,-0.31867 8.234655,-0.54272 12.337235,-0.67748 -1.49666,-1.20047 -3.32226,-2.56434 -6.134,-4.0075 2.83267,0.73605 4.86107,1.58552 6.44199,2.53473 -0.60313,-1.12292 -1.15711,-2.15952 -1.70842,-3.19154 z m -21.234367,1.13585 c -4.196577,0.3422 -8.1679,0.73262 -12.023039,1.14463 -1.028028,1.87966 -2.161764,3.93797 -3.360519,6.10609 3.840584,-0.59708 7.555319,-1.12044 11.18123,-1.57303 1.536896,-0.51386 3.021377,-0.91113 4.475179,-1.18443 -0.230082,-0.98959 -0.360801,-2.06018 -0.351916,-3.17706 l 0.0088,-0.23771 c 0.0091,-0.36683 0.03401,-0.72604 0.07028,-1.07849 z" /><path
           id="path28460"
           style="display:inline;fill:#198acf;fill-opacity:1;stroke:none;stroke-width:0.1;stroke-linejoin:round;stroke-miterlimit:2;stroke-dasharray:none;stroke-opacity:1;paint-order:fill markers stroke;stop-color:#000000"
           inkscape:label="arch-logo-d2"
           d="m 110.08424,112.3859 c -4.1026,0.1348 -8.19359,0.35876 -12.337235,0.67748 -0.02066,0.1076 -0.03923,0.21698 -0.06253,0.32246 5.300015,1.03679 10.987805,3.66963 18.304315,7.89358 -1.44267,-2.65606 -2.73027,-5.05004 -3.95997,-7.3303 -0.61546,-0.47703 -1.24757,-1.00414 -1.94458,-1.56322 z m -26.838675,2.14974 c -3.625472,0.4526 -7.339581,0.97549 -11.17968,1.57252 -0.911077,1.64781 -1.849301,3.34079 -2.868042,5.17126 5.403815,-3.11972 9.920601,-5.36371 14.047722,-6.74378 z" /></g></g><rect
       style="display:inline;fill:#d9f2ff;fill-opacity:1;stroke:none;stroke-width:0.271086;stroke-linejoin:round;stroke-miterlimit:2;stroke-opacity:1;paint-order:fill markers stroke;stop-color:#000000"
       id="rect21685"
       width="85.999596"
       height="105"
       x="62"
       y="139"
       inkscape:label="back-color-fill" /><rect
       style="display:inline;fill:#000000;stroke:#000000;stroke-width:0.128155;stroke-linecap:butt;stroke-linejoin:round;stroke-miterlimit:2;stroke-dasharray:none;stroke-dashoffset:0;stroke-opacity:1;paint-order:fill markers stroke;stop-color:#000000"
       id="rect3826"
       width="0.071845137"
       height="239.87184"
       x="109.26429"
       y="7.0640774"
       transform="translate(13.999796,23)"
       inkscape:label="split-line" /></g><g
     inkscape:groupmode="layer"
     id="layer4"
     inkscape:label="border"
     style="stroke:#93b7d9;stroke-opacity:1;stroke-width:0.2;stroke-dasharray:none;fill:none"><path
       id="path7228"
       style="fill:none;stroke:#93b7d9;stroke-width:0.2;stroke-linecap:butt;stroke-linejoin:round;stroke-dasharray:none;stroke-dashoffset:0;stroke-opacity:1;paint-order:markers stroke fill;stroke-miterlimit:2;stop-color:#000000"
       inkscape:label="glue-flap"
       d="m 49,219 v -0.25 h 84 V 219 l -2.2,10 H 51.199999 Z"
       sodipodi:nodetypes="ccccccc"
       transform="translate(13.999796,23)" /><rect
       style="fill:none;stroke:#93b7d9;stroke-width:0.2;stroke-linecap:butt;stroke-linejoin:round;stroke-dasharray:none;stroke-dashoffset:0;stroke-opacity:1;paint-order:markers stroke fill;fill-opacity:1;stroke-miterlimit:2;stop-color:#000000"
       id="rect7230"
       width="84"
       height="84"
       x="49"
       y="134.75"
       inkscape:label="back"
       transform="translate(13.999796,23)" /><path
       id="rect7232"
       style="fill:none;stroke:#93b7d9;stroke-width:0.2;stroke-linecap:butt;stroke-linejoin:round;stroke-dasharray:none;stroke-dashoffset:0;stroke-opacity:1;paint-order:markers stroke fill;fill-opacity:1;stroke-miterlimit:2;stop-color:#000000"
       inkscape:label="bottom"
       d="M 48.999976 115.75019 L 48.999976 116.2499 L 46.000159 116.2499 L 43.999765 118.24978 L 36.000253 120.25017 L 36.000253 130.74979 L 46.699858 132.24996 L 48.999976 134.24983 L 48.999976 134.75006 L 133.00002 134.75006 L 133.00002 134.24983 L 135.99983 134.24983 L 138.00023 132.24996 L 146.00026 130.25008 L 146.00026 119.74994 L 135.30013 118.24978 L 133.00002 116.2499 L 133.00002 115.75019 L 48.999976 115.75019 z "
       transform="translate(13.999796,23)" /><rect
       style="fill:none;stroke:#93b7d9;stroke-width:0.2;stroke-linecap:butt;stroke-linejoin:round;stroke-dasharray:none;stroke-dashoffset:0;stroke-opacity:1;paint-order:markers stroke fill;fill-opacity:1;stroke-miterlimit:2;stop-color:#000000"
       id="rect7234"
       width="84"
       height="84"
       x="49"
       y="31.75"
       inkscape:label="front"
       transform="translate(13.999796,23)" /><path
       id="rect7236"
       style="fill:none;stroke:#93b7d9;stroke-width:0.2;stroke-linecap:butt;stroke-linejoin:round;stroke-dasharray:none;stroke-dashoffset:0;stroke-opacity:1;paint-order:markers stroke fill;fill-opacity:1;stroke-miterlimit:2;stop-color:#000000"
       inkscape:label="top"
       d="M 48.999976 12.99987 L 46.49987 15.249862 L 36.000253 16.750028 L 36.000253 27.250163 L 43.999765 29.250041 L 46.000159 31.249919 L 48.999976 31.249919 L 48.999976 31.750146 L 133.00002 31.750146 L 133.00002 31.249919 L 135.30013 29.250041 L 146.00026 27.749874 L 146.00026 17.250256 L 138.00023 15.249862 L 135.75024 12.99987 L 133.00002 12.99987 L 48.999976 12.99987 z "
       transform="translate(13.999796,23)" /><path
       id="path7238"
       style="fill:none;stroke:#93b7d9;stroke-width:0.2;stroke-linecap:butt;stroke-linejoin:round;stroke-dasharray:none;stroke-dashoffset:0;stroke-opacity:1;paint-order:markers stroke fill;stroke-miterlimit:2;stop-color:#000000"
       inkscape:label="right tuck-flap"
       d="m 151,32.250017 v 4.499984 h -1.49965 c -2e-4,2.28e-4 -5.2e-4,74.000139 -5.2e-4,74.000139 H 151 v 4.50049 c 3.74463,-0.0726 7.41719,-2.11586 8.99996,-5.00021 V 37.250229 C 158.41721,34.365874 154.74457,32.322657 151,32.250017 Z"
       sodipodi:nodetypes="ccccccccc"
       transform="translate(13.999796,23)" /><path
       id="path7240"
       style="fill:none;stroke:#93b7d9;stroke-width:0.2;stroke-linecap:butt;stroke-linejoin:round;stroke-dasharray:none;stroke-dashoffset:0;stroke-opacity:1;paint-order:markers stroke fill;stroke-miterlimit:2;stop-color:#000000"
       inkscape:label="right closure-panel"
       d="m 133,31.749997 h 18 v 5.000004 h -1.5 V 110.75 h 1.5 v 5 h -18 z"
       sodipodi:nodetypes="ccccccccc"
       transform="translate(13.999796,23)" /><path
       id="path7242"
       style="fill:none;stroke:#93b7d9;stroke-width:0.2;stroke-linecap:butt;stroke-linejoin:round;stroke-dasharray:none;stroke-dashoffset:0;stroke-opacity:1;paint-order:markers stroke fill;stroke-miterlimit:2;stop-color:#000000"
       inkscape:label="left tuck-flap"
       d="M 31.000175,135.25002 V 139.75 h 1.49965 c 1.9e-4,2.3e-4 5.2e-4,74.00014 5.2e-4,74.00014 h -1.50017 v 4.5005 c -3.74463,-0.0726 -7.41719,-2.11586 -8.999971,-5.00021 v -73.0002 c 1.582751,-2.88435 5.255401,-4.92757 8.999971,-5.00021 z"
       sodipodi:nodetypes="ccccccccc"
       transform="translate(13.999796,23)" /><path
       id="path7244"
       style="fill:none;stroke:#93b7d9;stroke-width:0.2;stroke-linecap:butt;stroke-linejoin:round;stroke-dasharray:none;stroke-dashoffset:0;stroke-opacity:1;paint-order:markers stroke fill;stroke-miterlimit:2;stop-color:#000000"
       inkscape:label="left closure-panel"
       d="M 49,134.75 H 31 v 5 h 1.5 v 74 H 31 v 5 h 18 z"
       sodipodi:nodetypes="ccccccccc"
       transform="translate(13.999796,23)" /></g></svg>
